<svg viewBox="0 0 320 364" version="1.1" xmlns="http://www.w3.org/2000/svg" xmlns:xlink="http://www.w3.org/1999/xlink"><g stroke="none" fill="#000000" fill-rule="evenodd"><path d="M260,70 L300,70 L300,176.139991 C300,184.476882 294.828543,191.939296 287.022469,194.866574 L192.977531,230.133426 C185.171457,233.060704 180,240.523118 180,248.860009 L180,295 L180,295 L140,295 L140,248.860009 C140,240.523118 134.828543,233.060704 127.022469,230.133426 L32.9775312,194.866574 C25.1714567,191.939296 20,184.476882 20,176.139991 L20,70 L20,70 L60,70 L60,145.81038 C60,154.309256 65.3712565,161.87994 73.3929915,164.687547 L153.392992,192.687547 C157.67045,194.184658 162.32955,194.184658 166.607008,192.687547 L246.607008,164.687547 C254.628744,161.87994 260,154.309256 260,145.81038 L260,70 L260,70 Z" /><circle cx="280" cy="40" r="40" /><circle cx="40" cy="40" r="40" /><circle cx="160" cy="324" r="40" /></g></svg>