<svg viewBox="0 0 307 230" version="1.1" xmlns="http://www.w3.org/2000/svg" xmlns:xlink="http://www.w3.org/1999/xlink"><g stroke="none" stroke-width="10" fill="none" fill-rule="evenodd"><g transform="translate(-7.000000, -10.000000)"><path d="M140.999133,15.6763113 C139.803263,14.9861948 138.440881,14.8461336 137.204938,15.1775689 C135.968994,15.5090042 134.859489,16.3119361 134.169373,17.5078059 L12.9858768,227.500867 C12.547357,228.260757 12.3165043,229.122656 12.3165043,230 C12.3165043,231.380712 12.8761483,232.630712 13.7809704,233.535534 C14.6857924,234.440356 15.9357924,235 17.3165043,235 L259.683496,235 C260.56084,235 261.422739,234.769147 262.182629,234.330627 C263.378498,233.640511 264.18143,232.531006 264.512866,231.295062 C264.844301,230.059119 264.70424,228.696737 264.014123,227.500867 L142.830627,17.5078059 C142.391599,16.7470339 141.759905,16.1153401 140.999133,15.6763113 Z" stroke="#17C58E" /><path d="M212.502515,63.6512281 C211.307184,62.9601777 209.944912,62.8190524 208.70871,63.1495223 C207.472508,63.4799921 206.362376,64.2820571 205.671326,65.4773875 L112.003457,227.497485 C111.563681,228.258179 111.332131,229.121332 111.332131,230 C111.332131,231.380712 111.891775,232.630712 112.796597,233.535534 C113.701419,234.440356 114.951419,235 116.332131,235 L303.667869,235 C304.546537,235 305.40969,234.76845 306.170384,234.328674 C307.365714,233.637624 308.167779,232.527492 308.498249,231.29129 C308.828719,230.055088 308.687594,228.692816 307.996543,227.497485 L214.328674,65.4773875 C213.890377,64.7192517 213.260651,64.0895254 212.502515,63.6512281 Z" stroke="#108775" /><path d="M188.05,95.9016591 L112.088226,227.500415 C111.649539,228.260412 111.418593,229.122479 111.418593,230 C111.418593,231.380712 111.978237,232.630712 112.883059,233.535534 C113.787881,234.440356 115.037881,235 116.418593,235 L259.681407,235 C260.558928,235 261.420995,234.769054 262.180992,234.330366 C263.37679,233.640125 264.179606,232.530536 264.510912,231.294558 C264.842219,230.05858 264.702015,228.696212 264.011774,227.500415 L188.05,95.9016591 Z" stroke="#2E495D" /></g><g transform="translate(66.000000, 66.000000)" fill="#EFF4F7" stroke="#000000"><path d="M92.2647201,4.58983125 C75.0245026,-0.276520148 56.7681218,-0.257675614 39.5357757,4.64637546 L35.6077527,2.42618857 C31.1841886,-0.0740868236 26.4406456,-1.96011784 21.5079527,-3.17988703 L15.6602163,-4.62593053 C14.1107019,-5.0090985 12.5468327,-4.75205821 11.2545224,-4.01735672 C9.96221216,-3.28265524 8.94146083,-2.07029255 8.47818214,-0.542815718 L6.2152319,6.91836083 C4.33969029,13.1022118 4.36224237,19.7000975 6.26988658,25.8613397 L4.30187602,28.4568319 C-0.582181383,34.898125 -3.51204001,42.6074301 -4.13879459,50.6666764 L-4.25916817,52.2145236 C-4.77454872,58.8416453 -4.42702037,65.5076392 -3.22530339,72.0452409 L-2.96488552,73.4619707 C-1.90366728,79.2352286 0.252936924,84.7519601 3.38849206,89.714317 C6.66375804,94.8977814 11.3985949,99.0041996 17.4493275,101.664184 C22.9888877,104.099449 28.8875697,105.617771 34.9144711,106.159716 L37.311964,106.375301 C35.0894807,111.128449 33.9230769,116.331648 33.9230769,121.623815 L33.9230769,149 C33.9230769,151.761424 35.042365,154.261424 36.8520091,156.071068 C38.6616532,157.880712 41.1616532,159 43.9230769,159 L86.3846154,159 C89.1460391,159 91.6460391,157.880712 93.4556832,156.071068 C95.2653273,154.261424 96.3846154,151.761424 96.3846154,149 L96.3846154,121.318278 C96.3846154,116.102644 95.2193347,110.975892 93.0005008,106.303698 L93.7522481,106.229341 C99.7611875,105.634978 105.638357,104.094235 111.166057,101.664184 C116.845454,99.1674437 121.915427,95.4680191 126.026017,90.8212657 L126.437291,90.3563477 C130.9003,85.3112064 133.919218,79.1506283 135.225303,72.0452409 C136.42702,65.5076392 136.774549,58.8416453 136.259168,52.2145236 L136.138795,50.6666764 C135.51204,42.6074301 132.582181,34.898125 127.698124,28.4568319 L125.733906,25.8663412 C127.640424,19.8939272 127.990769,13.5300022 126.746975,7.37862996 L125.252023,-0.0148825668 C124.924631,-1.63404684 123.973551,-2.9685404 122.699186,-3.81809731 C121.424821,-4.66765422 119.827173,-5.03227448 118.206647,-4.71169213 L110.721982,-3.23103018 C104.498458,-1.99985483 98.5736695,0.429581965 93.2773842,3.92205996 L92.2647201,4.58983125 Z" /></g></g></svg>