<svg viewBox="0 0 168 160" version="1.1" xmlns="http://www.w3.org/2000/svg" xmlns:xlink="http://www.w3.org/1999/xlink"><g stroke="none" fill="#000000" fill-rule="evenodd"><path d="M81.6928386,134.497141 L34.6549488,158.962201 C33.6750019,159.471885 32.4674174,159.090662 31.9577334,158.110715 C31.7575612,157.725853 31.6879493,157.286341 31.7593954,156.858459 L40.4915434,104.562648 C40.7600081,102.954844 40.227875,101.317107 39.0656392,100.174166 L1.26247662,62.9985937 C0.474918058,62.2241098 0.464318935,60.9578242 1.23880282,60.1702656 C1.54297191,59.8609616 1.93946128,59.6589402 2.36847958,59.5946666 L54.8031336,51.7391384 C56.4152059,51.4976248 57.8083484,50.4854476 58.5361992,49.0269075 L82.2104496,1.58607981 C82.7036586,0.597738422 83.9046924,0.196354287 84.8930338,0.689563252 C85.2811928,0.883265052 85.5958486,1.19792079 85.7895504,1.58607981 L109.463801,49.0269075 C110.191652,50.4854476 111.584794,51.4976248 113.196866,51.7391384 L165.63152,59.5946666 C166.723899,59.7583219 167.476778,60.7765384 167.313122,61.8689169 C167.248849,62.2979352 167.046827,62.6944246 166.737523,62.9985937 L128.934361,100.174166 C127.772125,101.317107 127.239992,102.954844 127.508457,104.562648 L136.240605,156.858459 C136.422523,157.947945 135.686793,158.978621 134.597308,159.160539 C134.169425,159.231985 133.729913,159.162373 133.345051,158.962201 L86.3071614,134.497141 C84.8610094,133.744977 83.1389906,133.744977 81.6928386,134.497141 Z" /></g></svg>